<?xml version="1.0" encoding="UTF-8"?>
<svg id="Layer_1" data-name="Layer 1" xmlns="http://www.w3.org/2000/svg" width="495.74" height="115.06" viewBox="0 0 495.74 115.06">
  <defs>
    <style>
      .cls-1 {
        fill: #754c9e;
      }
    </style>
  </defs>
  <g>
    <g>
      <g>
        <path class="cls-1" d="m290.15,55.6c-3.43-3.69-6.8-7.34-10.25-11.06.58-.06,1.06-.12,1.54-.16.79-.07,1.59-.16,2.39-.21.33-.02.43-.16.47-.47,1.43-11.71,9.92-21.15,21.48-23.6,8.09-1.71,15.58-.04,22.21,4.94,5.57,4.18,8.98,9.79,10.38,16.6.02.12.08.26.04.36-.06.15-.17.36-.3.38-.12.03-.35-.11-.42-.23-.14-.25-.2-.54-.31-.82-3.22-8.19-9.15-13.23-17.78-14.81-10.97-2.02-21.77,4.4-25.52,14.94-.2.57-.38,1.16-.59,1.81,1.6-.14,3.12-.27,4.76-.42-2.73,4.29-5.39,8.48-8.1,12.74Z"/>
        <path class="cls-1" d="m290.34,57.68l-13.11-14.13,4.49-.48c.46-.04.92-.09,1.38-.12,1.72-11.97,10.66-21.6,22.41-24.09,8.47-1.8,16.29-.05,23.24,5.17,5.72,4.29,9.38,10.14,10.87,17.37.05.2.16.63-.02,1.09-.34.83-.86,1.09-1.23,1.16-.76.14-1.48-.32-1.78-.84-.16-.28-.24-.55-.31-.76-3.15-8.05-8.81-12.76-16.9-14.25-10.35-1.9-20.46,4-24.06,14.04l5.41-.47-10.38,16.33Zm-7.76-12.13l7.38,7.96,5.82-9.16-4.11.36.81-2.48c.13-.41.25-.81.39-1.2,4-11.27,15.32-17.89,26.95-15.76,5.3.98,9.66,3.19,13.05,6.62-1.54-2.21-3.43-4.15-5.66-5.83-6.34-4.76-13.47-6.34-21.18-4.71-10.89,2.31-19.12,11.35-20.48,22.5-.11.94-.73,1.54-1.66,1.59-.44.03-.88.06-1.32.1Zm54.58-3.48s0,0,0,0c0,0,0,0,0,0Z"/>
      </g>
      <g>
        <path class="cls-1" d="m329.73,54.23c-1.6.15-3.12.29-4.74.44,2.72-4.28,5.39-8.48,8.11-12.75,3.42,3.68,6.8,7.33,10.26,11.06-.52.05-.94.1-1.36.13-.86.08-1.71.16-2.57.22-.32.02-.44.14-.48.47-.72,6.2-3.27,11.56-7.66,15.97-6,6.04-13.31,8.8-21.82,8.15-11.37-.87-21.17-9.04-24.11-20.03-.18-.68-.33-1.37-.49-2.06-.01-.06-.02-.12-.03-.18-.04-.25-.02-.48.27-.55.29-.07.4.12.49.36.36.93.68,1.88,1.12,2.77,3.6,7.19,9.37,11.62,17.31,12.8,8.62,1.29,15.8-1.62,21.4-8.32,1.96-2.34,3.28-5.03,4.14-7.95.04-.14.08-.29.14-.53Z"/>
        <path class="cls-1" d="m311.89,79.29c-.83,0-1.67-.03-2.52-.1-11.99-.92-22.14-9.35-25.25-20.97-.13-.49-.25-1-.36-1.5l-.18-.85c-.18-1.14.49-1.83,1.23-2.01.22-.05,1.43-.28,1.98,1.13l.29.76c.24.64.48,1.29.79,1.9,3.47,6.94,8.97,11.01,16.35,12.11,8.06,1.2,14.86-1.45,20.24-7.88,1.48-1.77,2.63-3.81,3.48-6.21l-5.44.5,10.39-16.34,13.15,14.17-4.48.43c-.47.04-.95.09-1.43.12-.85,6.25-3.52,11.66-7.94,16.11-5.69,5.73-12.52,8.62-20.31,8.62Zm-21.43-13.59c4.4,6.16,11.42,10.35,19.11,10.94,8.08.62,15.08-1.99,20.82-7.77,4.15-4.18,6.61-9.3,7.29-15.22.11-.93.73-1.53,1.66-1.59.44-.03.88-.06,1.32-.1l-7.38-7.95-5.82,9.15,3.96-.36-.61,2.33c-.97,3.26-2.45,6.09-4.39,8.41-5.99,7.15-13.56,10.11-22.57,8.76-5.37-.8-9.85-3-13.39-6.58Z"/>
      </g>
    </g>
    <g>
      <g>
        <path class="cls-1" d="m34.03,74.34V23.52c0-2.41,1.95-4.36,4.36-4.36h7.1c2.41,0,4.36,1.95,4.36,4.36v50.83c0,2.41-1.95,4.36-4.36,4.36h-7.1c-2.41,0-4.36-1.95-4.36-4.36Z"/>
        <path class="cls-1" d="m56.38,22.82c0-2.03,1.64-3.67,3.67-3.67h19.01c3.97,0,7.66.99,11.06,2.98,3.4,1.99,6.09,4.68,8.08,8.08,1.98,3.4,2.98,7.08,2.98,11.06s-.98,7.45-2.94,10.44c-1.96,2.99-4.62,5.3-7.99,6.93-3.37,1.63-7.1,2.45-11.18,2.45h-3.18c-2.03,0-3.67,1.64-3.67,3.67v10.28c0,2.03-1.64,3.67-3.67,3.67h-8.49c-2.03,0-3.67-1.64-3.67-3.67V22.82Zm25.62,40.5c-.44-.62-1.09-1.14-1.96-1.55-.87-.41-2.07-.61-3.59-.61h-3.02c-2.03,0-3.67-1.64-3.67-3.67h0c0-2.03,1.64-3.67,3.67-3.67h7.75c3.32,0,5.94.2,7.87.61,1.93.41,3.64,1.32,5.14,2.73,1.49,1.41,2.84,3.62,4.04,6.61l4.04,9.87c.99,2.42-.79,5.06-3.4,5.06h-7.75c-1.48,0-2.81-.89-3.39-2.25l-4.36-10.4c-.49-1.2-.95-2.11-1.39-2.73Zm1.14-16.68c1.47-1.52,2.2-3.32,2.2-5.39s-.73-3.78-2.2-5.3c-1.47-1.52-3.18-2.28-5.14-2.28h-2.12c-2.03,0-3.67,1.64-3.67,3.67v7.91c0,2.03,1.64,3.67,3.67,3.67h2.12c1.96,0,3.67-.76,5.14-2.28Z"/>
        <path class="cls-1" d="m128.65,19.15h9.17c2.43,0,4.13,2.39,3.33,4.69l-18.27,52.5c-.49,1.42-1.83,2.37-3.33,2.37h-9.17c-2.43,0-4.13-2.39-3.33-4.69l18.27-52.5c.49-1.42,1.83-2.37,3.33-2.37Zm-.53,36.63h14.89c1.95,0,3.53,1.58,3.53,3.53v7.47c0,1.95-1.58,3.53-3.53,3.53h-14.89c-1.95,0-3.53-1.58-3.53-3.53v-7.47c0-1.95,1.58-3.53,3.53-3.53Zm4.7-36.63h9.17c1.5,0,2.84.95,3.33,2.37l18.27,52.5c.8,2.29-.9,4.69-3.33,4.69h-9.17c-1.5,0-2.84-.95-3.33-2.37l-18.27-52.5c-.8-2.29.9-4.69,3.33-4.69Z"/>
        <path class="cls-1" d="m198.52,77.95l-12.04-30.04c-.5-1.24-2.34-.88-2.34.45v29.13c0,.67-.54,1.21-1.21,1.21h-12.59c-.67,0-1.21-.54-1.21-1.21V20.36c0-.67.54-1.21,1.21-1.21h18.61c.49,0,.94.3,1.13.76l14.41,35.78c.5,1.24,2.34.88,2.34-.45V20.36c0-.67.54-1.21,1.21-1.21h12.59c.67,0,1.21.54,1.21,1.21v57.13c0,.67-.54,1.21-1.21,1.21h-20.97c-.5,0-.94-.3-1.13-.76Z"/>
        <path class="cls-1" d="m273.15,78.71h-28.79c-2.07,0-3.76-1.68-3.76-3.76V22.91c0-2.07,1.68-3.76,3.76-3.76h8.32c2.07,0,3.76,1.68,3.76,3.76v37.52c0,2.07,1.68,3.76,3.76,3.76h12.97c2.07,0,3.76,1.68,3.76,3.76v7.01c0,2.07-1.68,3.76-3.76,3.76Z"/>
        <path class="cls-1" d="m341.11,83.3c0-.51.41-.92.92-.92h4.87c1.14,0,2.04-.33,2.69-.98.65-.65.98-1.5.98-2.53V23.7c0-2.51,2.04-4.55,4.55-4.55h6.72c2.51,0,4.55,2.04,4.55,4.55v54.59c0,3.37-.8,6.49-2.41,9.34-1.47,2.62-3.43,4.74-5.86,6.35-2.6,1.72-7.41,2.91-10.53,2.91h-5.57c-.51,0-.92-.41-.92-.92v-12.68Z"/>
      </g>
      <path class="cls-1" d="m34.88,82.38h307.15v14.52H34.88c-.71,0-1.28-.57-1.28-1.28v-11.96c0-.71.57-1.28,1.28-1.28Z"/>
    </g>
  </g>
  <path class="cls-1" d="m379.49,87.22c-1.88,0-3.57,3.02-3.57,4.9s1.69,4.98,3.57,4.98h99.84c1.88,0,3.41-1.53,3.41-3.41v-8.26h-3.58v-23.7c0-1.69-1.24-3.13-2.92-3.38l-10.71-1.56c-1.22-.18-2.22-1.01-2.68-2.15-1.28-3.14-2.79-5.92-4.43-8.38-19.12-28.68-64.68-27.59-78.8-26.59-1.79.13-3.15,1.61-3.15,3.4v53.65c0,2.87,2.33,5.2,5.2,5.2h70.74c.69,0,1.25.56,1.25,1.25v2.76c0,.69-.56,1.25-1.25,1.25m-42.16-32.46c0,.65-.53,1.18-1.18,1.18h-25.59c-.65,0-1.18-.53-1.18-1.18v-2.36c0-.65.53-1.18,1.18-1.18h25.59c.65,0,1.18.53,1.18,1.18v2.36Zm0-9.15c0,.65-.53,1.18-1.18,1.18h-25.59c-.65,0-1.18-.53-1.18-1.18v-2.36c0-.65.53-1.18,1.18-1.18h25.59c.65,0,1.18.53,1.18,1.18v2.36Zm0-9.15c0,.65-.53,1.18-1.18,1.18h-25.59c-.65,0-1.18-.53-1.18-1.18v-2.36c0-.65.53-1.18,1.18-1.18h25.59c.65,0,1.18.53,1.18,1.18v2.36Zm40.97,25.15h-35.32c-.69,0-1.25-.56-1.25-1.25v-26.05c0-.69.56-1.25,1.25-1.25h9.27c15.08,0,27.3,12.22,27.3,27.3,0,.69-.56,1.25-1.25,1.25Zm21.94,24.38c0,.69-.56,1.25-1.25,1.25h-12.24c-.69,0-1.25-.56-1.25-1.25v-2.76c0-.69.56-1.25,1.25-1.25h12.24c.69,0,1.25.56,1.25,1.25v2.76Z"/>
</svg>